<svg xmlns="http://www.w3.org/2000/svg" viewBox="0 0 146.28 68.44"><defs><style>.cls-1{fill:#abc4ff;}.cls-2,.cls-3{fill:none;stroke-linecap:round;stroke-linejoin:round;stroke-width:1.35px;}.cls-2{stroke:#fff;}.cls-3{stroke:#274c77;}.cls-4{fill:#274c77;}</style></defs><title>Logo</title><g id="Layer_2" data-name="Layer 2"><g id="Layer_1-2" data-name="Layer 1"><path class="cls-1" d="M87.45,43.72c0,9.51-30,24.72-44.65,24.72C28.51,68.44,0,53.59,0,43.72a43.73,43.73,0,0,1,87.45,0Z"/><path class="cls-2" d="M27.05,33.45s6.89-6.35,13.49,0"/><path class="cls-2" d="M57.25,33s6.68-6.66,13.48-.62"/><path class="cls-3" d="M42.85,35.19s6.8,6.93,12.73,0"/><path class="cls-4" d="M102.84,36.94a9.85,9.85,0,0,1-2.24,1.4,6.17,6.17,0,0,1-2.44.46A4.53,4.53,0,0,1,96,38.3a3.61,3.61,0,0,1-1.43-1.36,3.57,3.57,0,0,1-.51-1.86,3.39,3.39,0,0,1,.83-2.31,4.16,4.16,0,0,1,2.29-1.29l1.51-.32c.81-.17,1.5-.33,2.07-.47s1.2-.31,1.87-.51a3.56,3.56,0,0,0-.51-1.92,2.22,2.22,0,0,0-1.87-.61,3.83,3.83,0,0,0-1.83.35,3,3,0,0,0-1.06,1.05,10.88,10.88,0,0,1-.62.93c-.12.15-.38.22-.78.22a1.32,1.32,0,0,1-.93-.36,1.17,1.17,0,0,1-.39-.91,2.89,2.89,0,0,1,.59-1.69,4.31,4.31,0,0,1,1.87-1.36,8.22,8.22,0,0,1,3.15-.53,8.54,8.54,0,0,1,3.32.52,3.11,3.11,0,0,1,1.7,1.62,7.35,7.35,0,0,1,.5,3c0,.78,0,1.43,0,2s0,1.15,0,1.81a6.79,6.79,0,0,0,.3,1.94,6.72,6.72,0,0,1,.29,1.3,1.2,1.2,0,0,1-.46.92,1.53,1.53,0,0,1-1,.42,1.38,1.38,0,0,1-1-.48A7.25,7.25,0,0,1,102.84,36.94Zm-.21-4.78a14.23,14.23,0,0,1-2,.56c-.89.2-1.51.35-1.85.44a2.42,2.42,0,0,0-1,.54,1.43,1.43,0,0,0-.47,1.13,1.73,1.73,0,0,0,.55,1.28,2,2,0,0,0,1.45.53,3.74,3.74,0,0,0,1.75-.43,2.89,2.89,0,0,0,1.18-1.11,5.32,5.32,0,0,0,.43-2.47Z"/><path class="cls-4" d="M109,36.79V22.47a2.31,2.31,0,0,1,.42-1.5,1.44,1.44,0,0,1,1.16-.51,1.49,1.49,0,0,1,1.17.51,2.17,2.17,0,0,1,.45,1.5V36.79a2.22,2.22,0,0,1-.46,1.51,1.51,1.51,0,0,1-1.16.5,1.4,1.4,0,0,1-1.14-.52A2.21,2.21,0,0,1,109,36.79Z"/><path class="cls-4" d="M117.14,23.84a1.68,1.68,0,0,1-1.15-.42,1.57,1.57,0,0,1-.47-1.2,1.51,1.51,0,0,1,.49-1.16,1.6,1.6,0,0,1,1.13-.45,1.67,1.67,0,0,1,1.1.41,1.5,1.5,0,0,1,.48,1.2,1.54,1.54,0,0,1-.47,1.19A1.56,1.56,0,0,1,117.14,23.84Zm1.58,3.41v9.54a2.16,2.16,0,0,1-.46,1.5,1.48,1.48,0,0,1-1.16.51,1.4,1.4,0,0,1-1.14-.52,2.26,2.26,0,0,1-.44-1.49V27.35a2.18,2.18,0,0,1,.44-1.48,1.44,1.44,0,0,1,1.14-.49,1.5,1.5,0,0,1,1.16.49A1.93,1.93,0,0,1,118.72,27.25Z"/><path class="cls-4" d="M124.29,27.43l2.59,7.5,2.78-7.82a4.74,4.74,0,0,1,.65-1.34,1.16,1.16,0,0,1,1-.39,1.43,1.43,0,0,1,1,.42,1.35,1.35,0,0,1,.42,1,2.12,2.12,0,0,1-.07.51,4.27,4.27,0,0,1-.18.54c-.06.17-.14.36-.23.58l-3.07,7.86c-.08.23-.19.52-.33.86a4.33,4.33,0,0,1-.46.89,1.8,1.8,0,0,1-.62.58,1.86,1.86,0,0,1-.89.2,1.72,1.72,0,0,1-1.09-.32,2.16,2.16,0,0,1-.6-.7c-.13-.25-.34-.76-.65-1.51l-3-7.77c-.07-.2-.15-.39-.22-.58s-.14-.4-.19-.6a2.13,2.13,0,0,1-.07-.52,1.24,1.24,0,0,1,.2-.67,1.5,1.5,0,0,1,.55-.54,1.43,1.43,0,0,1,.76-.21,1.17,1.17,0,0,1,1.09.47A7.82,7.82,0,0,1,124.29,27.43Z"/><path class="cls-4" d="M143.64,32.9h-6.25a4.31,4.31,0,0,0,.44,2,3.08,3.08,0,0,0,1.13,1.3,3,3,0,0,0,1.57.43,3.51,3.51,0,0,0,1.05-.14,3.33,3.33,0,0,0,.92-.43,7.48,7.48,0,0,0,.82-.64c.25-.22.57-.53,1-.92a1,1,0,0,1,.7-.21,1.16,1.16,0,0,1,.8.27,1,1,0,0,1,.3.79,2.17,2.17,0,0,1-.34,1.05,4,4,0,0,1-1,1.15,5.93,5.93,0,0,1-1.72.91,7.32,7.32,0,0,1-2.39.36A6.26,6.26,0,0,1,135.83,37a6.89,6.89,0,0,1-1.71-4.93,8.46,8.46,0,0,1,.42-2.71,6,6,0,0,1,1.23-2.15,5.41,5.41,0,0,1,2-1.37,7,7,0,0,1,2.63-.48,6,6,0,0,1,3.21.82,5.21,5.21,0,0,1,2,2.11,5.63,5.63,0,0,1,.67,2.64c0,.83-.23,1.36-.69,1.61A4.15,4.15,0,0,1,143.64,32.9ZM137.39,31h5.8a4.12,4.12,0,0,0-.89-2.53,2.6,2.6,0,0,0-2-.84,2.5,2.5,0,0,0-2,.85A4.34,4.34,0,0,0,137.39,31Z"/></g></g></svg>